<svg version="1.1" id="Layer_1" xmlns="http://www.w3.org/2000/svg" xmlns:xlink="http://www.w3.org/1999/xlink" x="0px" y="0px"
	 width="100%" viewBox="0 0 167 224" enable-background="new 0 0 167 224" xml:space="preserve">
<path fill="#000000" opacity="1.000000" stroke="none" 
	d="
M94.000000,1.000000 
	C118.666687,1.000000 143.333374,1.000000 168.000000,1.000000 
	C168.000000,3.715737 168.000000,6.366820 167.644165,9.488672 
	C163.369904,7.650044 159.673996,4.061476 155.480698,3.331945 
	C149.236710,2.245645 142.641495,3.178154 135.744125,3.291794 
	C135.273560,25.546122 135.254623,47.760258 135.105133,70.262466 
	C134.333450,71.081604 133.692291,71.612679 132.719818,72.068115 
	C131.943695,72.052322 131.498901,72.112175 130.775635,72.066864 
	C130.021652,71.616989 129.546143,71.272270 128.929901,70.615479 
	C127.205162,67.812271 125.621140,65.321136 123.971169,62.601158 
	C123.710342,62.089104 123.441444,61.934441 123.042557,61.556156 
	C120.442551,57.139824 117.898506,53.075649 114.893486,48.275051 
	C110.391029,55.241951 106.273796,61.612766 102.081085,68.227234 
	C101.956757,68.633774 101.907913,68.796661 101.583389,69.086487 
	C101.118431,69.730072 100.929138,70.246712 100.817200,70.890999 
	C100.894562,71.018639 100.762413,70.754379 100.457352,70.678955 
	C99.730873,71.048790 99.309456,71.494064 98.526810,71.961685 
	C97.073296,71.580757 95.981026,71.177475 94.892288,70.325470 
	C94.931427,48.562553 94.980797,27.248339 94.959595,5.934192 
	C94.958595,4.929228 94.330292,3.924887 93.994980,2.960003 
	C93.995834,2.999749 94.075294,3.002413 93.932686,2.611718 
	C93.860054,1.814016 93.930023,1.407008 94.000000,1.000000 
z"/>
<path fill="#054787" opacity="1.000000" stroke="none" 
	d="
M54.000000,225.000000 
	C42.645771,225.000000 31.291544,225.000000 19.546162,224.641830 
	C17.585808,223.192276 16.105726,221.934006 14.431213,221.039825 
	C8.688677,217.973251 3.033304,210.275101 3.074580,202.824066 
	C3.151700,201.943649 3.186021,201.439835 3.310693,200.829453 
	C3.498068,200.433334 3.418347,200.190735 3.010375,199.958206 
	C2.858869,199.921310 2.548192,199.948547 2.481831,199.488892 
	C2.501244,193.010056 2.587018,186.990860 2.963357,180.763000 
	C3.502562,178.795639 3.954738,177.038284 3.966387,175.278015 
	C4.035380,164.852020 4.002191,154.425339 4.405356,143.963608 
	C5.538071,142.321732 6.846876,140.733902 6.899713,139.105316 
	C7.131760,131.952957 6.974997,124.788651 7.025599,117.629143 
	C7.034485,116.371811 7.360836,115.116722 7.540574,113.860588 
	C8.027043,113.908035 8.513514,113.955482 8.999983,114.002930 
	C8.999983,115.780296 8.960976,117.558647 9.006241,119.334862 
	C9.327875,131.955887 9.626685,144.577835 10.054829,157.195343 
	C10.103983,158.643936 10.905720,160.067001 11.724394,162.661346 
	C14.352615,156.944412 11.179296,151.588593 15.406448,147.816681 
	C15.817635,153.636780 14.781001,159.387619 15.178690,165.037476 
	C15.568301,170.572601 17.418268,176.004913 18.435694,180.614380 
	C22.253736,180.028397 25.638035,179.508987 29.005026,179.200287 
	C28.987719,179.410995 28.968910,179.833405 28.642067,179.907104 
	C27.551666,180.276169 26.788109,180.571518 25.711119,181.037003 
	C20.235601,183.359299 16.321749,186.712662 13.979074,191.978119 
	C9.955112,201.022446 18.166004,214.087067 28.369425,214.449982 
	C35.777332,214.908417 42.895561,215.070312 50.037903,215.582840 
	C52.245899,218.577255 56.609638,220.274200 54.000000,225.000000 
z"/>
<path fill="#014A98" opacity="1.000000" stroke="none" 
	d="
M104.000000,225.000000 
	C94.312439,225.000000 84.624878,225.000000 74.530823,224.655273 
	C75.240463,221.461716 80.996452,220.783783 78.474159,216.008804 
	C86.961594,216.006302 94.981102,216.008698 103.089615,216.353241 
	C103.452415,219.463577 103.726204,222.231781 104.000000,225.000000 
z"/>
<path fill="#000000" opacity="1.000000" stroke="none" 
	d="
M1.000000,23.000000 
	C1.000000,15.737160 1.000000,8.474319 1.000000,1.000000 
	C8.686251,1.000000 16.374434,1.000000 24.860167,1.235536 
	C25.450613,1.962149 25.243509,2.453225 24.756836,3.062034 
	C22.291981,4.100180 20.106697,5.020594 17.953655,5.959095 
	C17.985899,5.977182 17.968288,5.905371 17.724575,5.953394 
	C17.480862,6.001417 17.019560,6.185834 16.688374,6.270715 
	C13.628069,8.568306 10.898952,10.781014 8.107332,13.353401 
	C6.733467,16.120520 5.561851,18.621395 4.044369,20.891026 
	C3.406052,21.845728 2.036913,22.311800 1.000000,23.000000 
z"/>
<path fill="#024890" opacity="1.000000" stroke="none" 
	d="
M78.006233,216.013702 
	C80.996452,220.783783 75.240463,221.461716 74.062164,224.655273 
	C67.645599,225.000000 61.291203,225.000000 54.468403,225.000000 
	C56.609638,220.274200 52.245899,218.577255 50.462166,215.514603 
	C52.582748,215.126083 54.303185,215.156448 56.373108,215.398575 
	C63.817139,215.744797 70.911690,215.879257 78.006233,216.013702 
z"/>
<path fill="#0650AE" opacity="1.000000" stroke="none" 
	d="
M168.000000,215.000000 
	C168.000000,216.388885 168.000000,217.777786 167.674179,219.386902 
	C165.898911,221.404755 164.449448,223.202377 163.000000,225.000000 
	C155.979050,225.000000 148.958099,225.000000 141.412933,224.645264 
	C139.741440,221.793732 140.292587,220.108856 142.966080,218.948502 
	C144.454330,218.302567 145.661072,217.008102 147.000595,215.805008 
	C147.006516,215.604111 147.011063,215.202301 147.439926,215.143036 
	C149.598999,215.124329 151.329208,215.164902 153.336639,215.397888 
	C154.730881,215.720398 155.847916,215.850464 157.265564,216.125854 
	C162.470413,219.517990 163.024200,219.349838 165.562546,214.006744 
	C165.900040,213.296326 166.461227,212.692154 166.947067,212.370468 
	C167.316879,213.468109 167.658447,214.234055 168.000000,215.000000 
z"/>
<path fill="#377AD4" opacity="1.000000" stroke="none" 
	d="
M168.000000,214.531342 
	C167.658447,214.234055 167.316879,213.468109 166.975006,211.899734 
	C166.951920,206.065094 166.929153,201.032867 166.938965,195.532684 
	C166.945129,182.709427 166.918716,170.354172 166.923203,157.531250 
	C166.937134,148.042099 166.920166,139.020569 166.936249,129.531555 
	C166.945633,122.042671 166.921951,115.021263 166.917725,107.667023 
	C166.924744,106.889999 166.912323,106.445816 166.933548,105.533798 
	C166.941940,75.698586 166.916672,46.331207 166.903870,16.733450 
	C166.916336,16.503071 166.875900,16.043415 166.898102,15.666317 
	C166.940155,14.534719 166.960022,13.780221 167.234695,13.010581 
	C167.659668,12.996960 167.829834,12.998480 168.000000,13.000000 
	C168.000000,80.020897 168.000000,147.041794 168.000000,214.531342 
z"/>
<path fill="#014DA8" opacity="1.000000" stroke="none" 
	d="
M146.994690,216.005920 
	C145.661072,217.008102 144.454330,218.302567 142.966080,218.948502 
	C140.292587,220.108856 139.741440,221.793732 140.944366,224.645264 
	C134.978851,225.000000 128.957687,225.000000 122.468735,224.597839 
	C122.667076,221.469193 123.333237,218.742706 124.468071,216.010620 
	C132.289398,216.005325 139.642044,216.005615 146.994690,216.005920 
z"/>
<path fill="#8DB8DE" opacity="1.000000" stroke="none" 
	d="
M2.672794,180.971680 
	C2.587018,186.990860 2.501244,193.010056 2.094559,199.503204 
	C1.515766,199.984787 1.257883,199.992386 1.000000,200.000000 
	C1.000000,142.645767 1.000000,85.291542 1.455462,27.477060 
	C2.210942,27.063908 2.510961,27.111008 2.706959,27.532413 
	C2.642714,33.611874 2.682488,39.317028 2.587844,45.465813 
	C2.538362,49.950069 2.623300,53.990688 2.576368,58.429016 
	C2.531832,60.205978 2.619165,61.585239 2.574295,63.415413 
	C2.525923,69.244507 2.609756,74.622688 2.566583,80.451645 
	C2.398306,113.442039 2.354412,145.981659 2.330833,178.521301 
	C2.330241,179.338013 2.553785,180.154877 2.672794,180.971680 
z"/>
<path fill="#014BA0" opacity="1.000000" stroke="none" 
	d="
M123.999397,216.016205 
	C123.333237,218.742706 122.667076,221.469193 122.000458,224.597839 
	C116.311958,225.000000 110.623917,225.000000 104.467934,225.000000 
	C103.726204,222.231781 103.452415,219.463577 103.558060,216.349182 
	C110.624802,216.007401 117.312103,216.011795 123.999397,216.016205 
z"/>
<path fill="#000000" opacity="1.000000" stroke="none" 
	d="
M3.031779,203.200653 
	C3.033304,210.275101 8.688677,217.973251 14.431213,221.039825 
	C16.105726,221.934006 17.585808,223.192276 19.077505,224.641830 
	C13.066465,225.000000 7.132930,225.000000 1.000000,225.000000 
	C1.000000,217.980103 1.000000,210.958832 1.311706,203.227127 
	C2.092868,202.744690 2.562323,202.972672 3.031779,203.200653 
z"/>
<path fill="#0653B8" opacity="1.000000" stroke="none" 
	d="
M168.000000,12.625000 
	C167.829834,12.998480 167.659668,12.996960 166.888550,12.938606 
	C164.874268,11.176546 163.778992,8.951918 161.991669,7.857387 
	C154.840347,3.478032 147.088089,2.692001 138.785690,4.938993 
	C138.090912,5.121933 137.638931,5.391438 137.186935,5.660944 
	C137.791687,5.773236 138.396439,5.885529 139.300369,6.077233 
	C139.074722,8.058750 138.207672,9.939211 138.085754,11.866799 
	C137.619720,19.234915 137.393463,26.618196 137.061813,34.464466 
	C137.034637,44.886707 137.080246,54.841007 136.957153,64.793213 
	C136.936127,66.494003 136.194077,68.185875 135.851791,69.425476 
	C136.010880,47.063251 136.103302,25.157429 136.195740,3.251604 
	C142.641495,3.178154 149.236710,2.245645 155.480698,3.331945 
	C159.673996,4.061476 163.369904,7.650044 167.644165,9.979720 
	C168.000000,10.750000 168.000000,11.500000 168.000000,12.625000 
z"/>
<path fill="#A7C9ED" opacity="1.000000" stroke="none" 
	d="
M25.036404,2.944302 
	C25.243509,2.453225 25.450613,1.962149 25.328857,1.235536 
	C47.687561,1.000000 70.375122,1.000000 93.531342,1.000000 
	C93.930023,1.407008 93.860054,1.814016 93.583359,2.632016 
	C92.913292,3.089147 92.449959,3.135286 91.522202,3.112859 
	C69.050659,3.010962 47.043530,2.977632 25.036404,2.944302 
z"/>
<path fill="#014890" opacity="1.000000" stroke="none" 
	d="
M1.000000,23.333332 
	C2.036913,22.311800 3.406052,21.845728 4.044369,20.891026 
	C5.561851,18.621395 6.733467,16.120520 8.437626,13.421868 
	C10.474175,14.045363 12.117929,14.960068 13.761681,15.874773 
	C13.742462,16.337992 13.723243,16.801210 13.704024,17.264429 
	C11.610995,17.839375 9.517967,18.414322 7.556542,18.953117 
	C8.039515,22.313843 8.519949,25.656891 8.662285,28.892078 
	C7.574470,27.106386 6.824749,25.428549 6.057507,23.711498 
	C4.957350,24.194368 3.925171,24.647402 2.566933,24.998386 
	C1.827249,24.930891 1.413625,24.965446 1.000000,25.000000 
	C1.000000,24.555555 1.000000,24.111111 1.000000,23.333332 
z"/>
<path fill="#000000" opacity="1.000000" stroke="none" 
	d="
M163.499969,225.000000 
	C164.449448,223.202377 165.898911,221.404755 167.674179,219.803558 
	C168.000000,221.578964 168.000000,223.157913 168.000000,225.000000 
	C166.670563,225.000000 165.335251,225.000000 163.499969,225.000000 
z"/>
<path fill="#4677A5" opacity="1.000000" stroke="none" 
	d="
M3.074579,202.824066 
	C2.562323,202.972672 2.092868,202.744690 1.311706,202.758347 
	C1.000000,202.250000 1.000000,201.500000 1.000000,200.375000 
	C1.257883,199.992386 1.515766,199.984787 2.160920,199.962860 
	C2.548192,199.948547 2.858869,199.921310 3.001761,200.194824 
	C3.144654,200.468353 3.220341,200.936020 3.220342,200.936020 
	C3.186021,201.439835 3.151700,201.943649 3.074579,202.824066 
z"/>
<path fill="#4677A5" opacity="1.000000" stroke="none" 
	d="
M2.810979,27.158108 
	C2.510961,27.111008 2.210942,27.063908 1.455462,27.008404 
	C1.000000,27.000000 1.000000,26.500000 1.334553,26.203493 
	C2.118762,25.882965 2.568417,25.858942 3.095556,26.171429 
	C3.212829,26.734615 3.252618,26.961292 3.170546,27.204750 
	C3.048685,27.221531 2.810979,27.158108 2.810979,27.158108 
z"/>
<path fill="#000000" opacity="1.000000" stroke="none" 
	d="
M3.018072,25.834923 
	C2.568417,25.858942 2.118762,25.882965 1.334553,25.953493 
	C1.000000,26.000000 1.000000,25.500000 1.000000,25.250000 
	C1.413625,24.965446 1.827249,24.930891 2.607365,25.180227 
	C2.973856,25.464119 3.018072,25.834923 3.018072,25.834923 
z"/>
<path fill="#014FAF" opacity="1.000000" stroke="none" 
	d="
M91.986618,3.181425 
	C92.449959,3.135286 92.913292,3.089147 93.725967,3.022710 
	C94.075294,3.002413 93.995834,2.999749 93.988205,3.304188 
	C93.934555,4.063823 93.888542,4.519020 93.580399,5.176649 
	C93.096161,5.808881 92.678307,6.239501 92.680107,6.668359 
	C92.760643,25.869936 92.850365,45.071625 93.034309,64.272385 
	C93.052551,66.176544 93.672806,68.074944 94.131577,70.144272 
	C94.376266,70.585983 94.589348,70.739868 94.888748,70.774193 
	C95.981026,71.177475 97.073296,71.580757 98.826172,71.930923 
	C99.911980,71.503334 100.337196,71.128853 100.762413,70.754379 
	C100.762413,70.754379 100.894562,71.018639 101.085907,70.773964 
	C101.471191,70.006042 101.665131,69.482796 101.859062,68.959549 
	C101.907913,68.796661 101.956757,68.633774 102.368011,68.196198 
	C103.614273,68.908821 104.498146,69.896149 105.720322,71.261368 
	C106.485321,71.414047 108.066391,71.729591 111.494316,72.413727 
	C104.969498,76.108490 107.843979,79.213989 109.222649,82.906677 
	C110.717674,86.910995 112.123077,91.846321 111.051971,95.671188 
	C109.863472,99.915260 111.066505,101.602470 113.782448,104.001411 
	C115.784164,105.769501 117.873322,108.114807 118.552818,110.580635 
	C120.867188,118.979370 122.623451,127.534660 124.491707,136.052353 
	C125.361481,140.017853 124.144707,145.026093 130.009674,146.290833 
	C130.259537,146.344711 130.553116,146.752029 130.614914,147.040054 
	C131.942963,153.230545 133.583466,159.192169 136.846024,164.830521 
	C139.094955,168.717087 139.678009,173.567596 140.543945,177.990891 
	C136.366440,178.006378 132.650574,178.018280 128.702454,178.041000 
	C128.470184,178.051819 128.005249,178.043640 127.946815,177.674438 
	C125.145119,170.302628 120.900749,163.738876 121.643028,155.711853 
	C121.697311,155.124756 121.123344,154.501358 120.936859,153.866806 
	C119.233734,148.071655 117.627373,142.246597 115.822617,136.483566 
	C115.191208,134.467285 114.080063,132.602188 113.199379,130.662872 
	C110.816910,125.416573 108.263054,120.238945 106.113251,114.898781 
	C104.091759,109.877335 102.568222,104.657722 100.692612,99.574371 
	C99.536804,96.441872 97.950630,93.462440 96.884995,90.303856 
	C95.584358,86.448753 95.687492,81.560493 93.274269,78.770462 
	C89.586220,74.506569 90.132507,69.690285 88.811302,65.082947 
	C86.852921,58.253639 86.943428,50.836212 81.867012,44.792892 
	C79.447083,41.912045 78.949516,37.340168 77.848579,33.458435 
	C77.261513,31.388502 77.557945,29.056334 76.904587,27.019257 
	C75.487854,22.602148 73.716835,18.298672 71.820290,13.225416 
	C66.198349,11.688881 65.883751,10.633180 70.569031,5.427658 
	C70.867844,5.095675 70.864182,4.491460 71.469635,4.009756 
	C78.620903,3.730889 85.303757,3.456157 91.986618,3.181425 
z"/>
<path fill="#0150B3" opacity="1.000000" stroke="none" 
	d="
M141.005569,177.987305 
	C139.678009,173.567596 139.094955,168.717087 136.846024,164.830521 
	C133.583466,159.192169 131.942963,153.230545 130.614914,147.040054 
	C130.553116,146.752029 130.259537,146.344711 130.009674,146.290833 
	C124.144707,145.026093 125.361481,140.017853 124.491707,136.052353 
	C122.623451,127.534660 120.867188,118.979370 118.552818,110.580635 
	C117.873322,108.114807 115.784164,105.769501 113.782448,104.001411 
	C111.066505,101.602470 109.863472,99.915260 111.051971,95.671188 
	C112.123077,91.846321 110.717674,86.910995 109.222649,82.906677 
	C107.843979,79.213989 104.969498,76.108490 111.494316,72.413727 
	C108.066391,71.729591 106.485321,71.414047 105.720322,71.261368 
	C104.498146,69.896149 103.614273,68.908821 102.443481,67.952545 
	C106.273796,61.612766 110.391029,55.241951 114.893486,48.275051 
	C117.898506,53.075649 120.442551,57.139824 122.994865,61.601208 
	C123.003136,61.998421 122.907906,62.088661 122.560165,62.003342 
	C120.777328,61.647278 119.342224,61.376534 117.907112,61.105793 
	C117.767632,61.583763 117.628143,62.061733 117.488655,62.539707 
	C118.991203,63.026623 120.493744,63.513535 121.996948,64.333725 
	C121.998276,65.111382 121.998947,65.555756 121.777794,66.220345 
	C119.134682,71.685394 117.739525,65.233131 115.735870,65.849861 
	C113.639572,74.733559 115.583061,79.051208 123.047966,82.947090 
	C124.350677,83.626961 125.852852,85.040359 126.138527,86.358635 
	C127.327446,91.845024 127.940453,97.453987 129.049728,102.960579 
	C129.918396,107.272736 129.888840,112.762772 132.546783,115.536942 
	C141.768799,125.162209 143.967041,136.851685 145.034119,149.242126 
	C145.648926,156.381165 146.666489,163.263824 152.058289,168.965271 
	C154.511887,171.559769 155.379074,175.654495 156.535797,179.044250 
	C154.376007,178.976562 152.646286,178.933350 150.598541,178.661469 
	C147.188873,178.284317 144.097214,178.135818 141.005569,177.987305 
M106.221519,64.938538 
	C106.221519,64.938538 106.207840,64.646729 106.207840,64.646729 
	C106.207840,64.646729 105.936508,64.958817 105.767792,65.077888 
	C105.767792,65.077888 105.781845,65.354637 105.781845,65.354637 
	C105.781845,65.354637 106.037804,65.056160 106.221519,64.938538 
z"/>
<path fill="#0051BD" opacity="1.000000" stroke="none" 
	d="
M135.785126,69.881866 
	C136.194077,68.185875 136.936127,66.494003 136.957153,64.793213 
	C137.080246,54.841007 137.034637,44.886707 137.454514,34.503483 
	C138.575378,36.187317 139.516190,38.256035 139.941147,40.425785 
	C140.452866,43.038403 140.526230,45.736877 140.789352,48.398186 
	C141.395035,48.363384 142.000717,48.328579 142.606400,48.293777 
	C142.876480,44.791351 143.146545,41.288921 143.416626,37.786495 
	C143.937485,37.795555 144.458328,37.804615 144.979187,37.813675 
	C145.652786,43.676876 146.567810,49.525913 146.912781,55.408386 
	C147.132690,59.157990 146.811432,62.640137 151.281281,64.385376 
	C152.477936,64.852608 153.527710,66.928986 153.767212,68.408699 
	C155.042465,76.287788 156.029968,84.213280 157.157913,92.116882 
	C157.214203,92.511322 157.651474,92.851387 157.933884,93.248451 
	C158.901184,92.155899 159.757767,91.188408 161.489304,89.232666 
	C162.094559,94.131889 162.723846,97.813461 162.949234,101.519600 
	C163.114380,104.234978 163.793701,106.076096 166.899902,106.001633 
	C166.912323,106.445816 166.924744,106.889999 166.525894,107.706146 
	C165.451141,108.704750 164.228775,109.316193 164.211243,109.960403 
	C164.049179,115.918579 163.995590,121.885918 164.205551,127.840179 
	C164.232025,128.590576 165.962326,129.280899 166.903198,129.999054 
	C166.920166,139.020569 166.937134,148.042099 166.543457,157.496307 
	C165.440140,157.147430 164.379272,156.474304 164.112244,155.567413 
	C161.663101,147.249878 159.365768,138.887756 156.976715,130.552246 
	C156.755966,129.782013 156.165161,129.125427 155.818314,128.382385 
	C154.733704,126.058884 153.471329,123.790504 152.659912,121.372559 
	C150.187836,114.006012 147.896378,106.578873 145.526642,99.177879 
	C145.426422,98.864861 145.306549,98.524178 145.095032,98.285835 
	C141.692673,94.451988 141.738022,89.800110 142.015152,85.125725 
	C142.264709,80.916801 142.680527,76.771301 136.772797,76.034218 
	C135.782211,75.910637 134.926712,74.704544 133.882111,73.788864 
	C133.559540,73.312729 133.323273,73.089035 133.044403,72.716919 
	C133.042206,72.525841 133.051132,72.143745 133.051132,72.143753 
	C133.692291,71.612679 134.333450,71.081604 135.239624,70.222588 
	C135.504639,69.894646 135.785126,69.881866 135.785126,69.881866 
z"/>
<path fill="#0451B5" opacity="1.000000" stroke="none" 
	d="
M133.046585,72.908005 
	C133.323273,73.089035 133.559540,73.312729 133.819580,74.137665 
	C132.015579,77.829582 129.550232,80.259094 130.656952,84.927048 
	C131.979416,90.505043 129.809036,97.003960 135.746811,101.153900 
	C135.846741,101.223747 135.871979,101.470985 135.855255,101.627220 
	C134.994965,109.665146 137.142776,116.663605 142.935120,122.453773 
	C143.356491,122.874992 143.338547,123.709175 143.604645,124.316391 
	C146.014938,129.816010 147.778717,135.404831 147.131134,141.575409 
	C146.992447,142.897018 147.625793,145.005203 148.608398,145.614792 
	C152.516586,148.039337 152.212830,151.689240 151.969452,155.325592 
	C151.631058,160.381851 153.833038,164.105652 157.110565,167.781906 
	C159.541122,170.508148 161.843414,173.940811 162.589111,177.406067 
	C163.296326,180.692398 165.170135,185.728149 158.947723,186.712662 
	C158.321671,185.945770 157.753983,185.470490 157.120682,184.584015 
	C156.931244,183.075333 156.807434,181.977829 156.664764,180.725739 
	C156.645905,180.571152 156.751144,180.277664 156.809158,179.976196 
	C156.900070,179.472717 156.932968,179.270721 156.965851,179.068726 
	C155.379074,175.654495 154.511887,171.559769 152.058289,168.965271 
	C146.666489,163.263824 145.648926,156.381165 145.034119,149.242126 
	C143.967041,136.851685 141.768799,125.162209 132.546783,115.536942 
	C129.888840,112.762772 129.918396,107.272736 129.049728,102.960579 
	C127.940453,97.453987 127.327446,91.845024 126.138527,86.358635 
	C125.852852,85.040359 124.350677,83.626961 123.047966,82.947090 
	C115.583061,79.051208 113.639572,74.733559 115.735870,65.849861 
	C117.739525,65.233131 119.134682,71.685394 121.982010,66.440895 
	C123.006355,70.298149 122.512550,74.855949 128.293945,75.766151 
	C128.583771,73.960503 128.827194,72.444031 129.070618,70.927559 
	C129.546143,71.272270 130.021652,71.616989 130.977570,72.254852 
	C131.987503,72.667999 132.517044,72.788002 133.046585,72.908005 
z"/>
<path fill="#99C3F7" opacity="1.000000" stroke="none" 
	d="
M94.892288,70.325470 
	C94.589348,70.739868 94.376266,70.585983 94.173233,69.679916 
	C94.012161,47.689602 93.927345,26.331909 93.842529,4.974217 
	C93.888542,4.519020 93.934555,4.063823 93.987350,3.264441 
	C94.330292,3.924887 94.958595,4.929228 94.959595,5.934192 
	C94.980797,27.248339 94.931427,48.562553 94.892288,70.325470 
z"/>
<path fill="#9FC7FE" opacity="1.000000" stroke="none" 
	d="
M135.851791,69.425476 
	C135.785126,69.881866 135.504639,69.894646 135.370148,69.934525 
	C135.254623,47.760258 135.273560,25.546122 135.744125,3.291794 
	C136.103302,25.157429 136.010880,47.063251 135.851791,69.425476 
z"/>
<path fill="#0550BA" opacity="1.000000" stroke="none" 
	d="
M128.929901,70.615479 
	C128.827194,72.444031 128.583771,73.960503 128.293945,75.766151 
	C122.512550,74.855949 123.006355,70.298149 122.203827,66.220680 
	C121.998947,65.555756 121.998276,65.111382 122.205345,64.198334 
	C122.674248,63.518810 122.891808,63.269859 123.310150,62.954460 
	C123.554543,62.926128 124.037117,62.830009 124.037117,62.830009 
	C125.621140,65.321136 127.205162,67.812271 128.929901,70.615479 
z"/>
<path fill="#0653B8" opacity="1.000000" stroke="none" 
	d="
M133.044403,72.716919 
	C132.517044,72.788002 131.987503,72.667999 131.256042,72.360016 
	C131.498901,72.112175 131.943695,72.052322 132.719818,72.068108 
	C133.051132,72.143745 133.042206,72.525841 133.044403,72.716919 
z"/>
<path fill="#0150B3" opacity="1.000000" stroke="none" 
	d="
M100.457352,70.678955 
	C100.337196,71.128853 99.911980,71.503334 99.187408,71.908569 
	C99.309456,71.494064 99.730873,71.048790 100.457352,70.678955 
z"/>
<path fill="#0150B3" opacity="1.000000" stroke="none" 
	d="
M101.583389,69.086487 
	C101.665131,69.482796 101.471191,70.006042 101.008545,70.646324 
	C100.929138,70.246712 101.118431,69.730072 101.583389,69.086487 
z"/>
<path fill="#0150B3" opacity="1.000000" stroke="none" 
	d="
M123.971169,62.601158 
	C124.037117,62.830009 123.554543,62.926128 123.271500,62.730911 
	C122.988449,62.535690 122.907906,62.088661 122.907906,62.088661 
	C122.907906,62.088661 123.003136,61.998421 123.050827,61.953369 
	C123.441444,61.934441 123.710342,62.089104 123.971169,62.601158 
z"/>
<path fill="#000000" opacity="1.000000" stroke="none" 
	d="
M156.683624,180.880341 
	C156.807434,181.977829 156.931244,183.075333 157.054581,185.009689 
	C156.979218,187.565933 156.904327,189.285324 156.375931,191.005646 
	C129.281830,191.061722 102.641235,191.116867 75.536469,191.099579 
	C62.786125,191.017120 50.499744,190.970764 38.214069,191.043640 
	C36.700325,191.052612 35.190357,191.697922 33.395092,191.985184 
	C32.726574,192.259293 32.341606,192.596558 31.963707,192.952805 
	C31.970778,192.971771 31.931311,192.962784 31.612284,193.078217 
	C31.226725,193.847443 31.160194,194.501236 31.042976,195.447144 
	C30.332146,198.167725 29.626877,200.609100 32.996059,202.345001 
	C57.152416,202.770386 81.080475,202.801910 105.472672,202.898529 
	C122.952286,203.044662 139.967758,203.125717 156.996185,203.641510 
	C157.045959,206.698105 157.082794,209.319946 156.992813,212.188568 
	C156.580017,212.892365 156.294037,213.349396 155.546371,213.895157 
	C129.724731,214.044632 104.364754,214.105408 78.541252,214.090485 
	C61.411728,214.060989 44.745735,214.107208 28.079744,214.153442 
	C18.166004,214.087067 9.955112,201.022446 13.979074,191.978119 
	C16.321749,186.712662 20.235601,183.359299 26.180210,181.083710 
	C44.974049,180.918274 62.985363,180.876282 81.460266,180.909119 
	C106.843773,180.949417 131.763702,180.914886 156.683624,180.880341 
z"/>
<path fill="#01478B" opacity="1.000000" stroke="none" 
	d="
M29.022333,178.989578 
	C25.638035,179.508987 22.253736,180.028397 18.435694,180.614380 
	C17.418268,176.004913 15.568301,170.572601 15.178690,165.037476 
	C14.781001,159.387619 15.817635,153.636780 15.406448,147.816681 
	C11.179296,151.588593 14.352615,156.944412 11.724394,162.661346 
	C10.905720,160.067001 10.103983,158.643936 10.054829,157.195343 
	C9.626685,144.577835 9.327875,131.955887 9.006241,119.334862 
	C8.960976,117.558647 8.999983,115.780296 8.999983,114.002930 
	C8.513514,113.955482 8.027043,113.908035 7.540574,113.860588 
	C7.360836,115.116722 7.034485,116.371811 7.025599,117.629143 
	C6.974997,124.788651 7.131760,131.952957 6.899713,139.105316 
	C6.846876,140.733902 5.538071,142.321732 4.404506,143.495056 
	C4.001160,122.039879 4.000656,101.017952 3.999527,79.585457 
	C3.999406,78.842751 3.885992,78.453560 4.019073,78.187828 
	C4.827512,76.573540 5.692114,74.987389 6.537964,73.391838 
	C8.405567,74.575089 10.463921,75.561043 12.020506,77.065987 
	C12.467367,77.498016 11.565416,79.467117 11.109838,80.666084 
	C9.106108,85.939384 9.783284,91.136131 10.836525,96.531166 
	C17.409504,94.220047 19.736082,96.044518 20.065939,102.594460 
	C20.226574,105.784225 20.937391,108.975822 21.691339,112.095985 
	C22.209703,114.241203 23.373568,116.223289 23.994545,118.352470 
	C25.034616,121.918655 24.877693,126.417999 27.065336,128.906097 
	C29.392765,131.553177 31.121702,133.760803 31.350452,137.274216 
	C31.454802,138.876938 31.805685,140.861404 32.823483,141.933289 
	C36.043915,145.324844 35.978695,149.340134 36.098316,153.543015 
	C36.160683,155.734314 36.525970,158.837433 37.962803,159.910110 
	C44.238461,164.595261 44.751213,171.167389 44.540504,177.996170 
	C39.728279,178.306808 35.379524,178.615784 30.696007,178.940002 
	C29.914942,178.966690 29.468637,178.978134 29.022333,178.989578 
z"/>
<path fill="#084681" opacity="1.000000" stroke="none" 
	d="
M4.000153,79.996033 
	C4.000656,101.017952 4.001160,122.039879 4.002514,143.530334 
	C4.002191,154.425339 4.035380,164.852020 3.966387,175.278015 
	C3.954738,177.038284 3.502562,178.795639 2.963358,180.763000 
	C2.553785,180.154877 2.330241,179.338013 2.330833,178.521301 
	C2.354412,145.981659 2.398306,113.442039 2.783729,80.451683 
	C3.418628,79.997627 3.709385,79.995995 4.000153,79.996033 
z"/>
<path fill="#245A95" opacity="1.000000" stroke="none" 
	d="
M29.005026,179.200287 
	C29.468637,178.978134 29.914942,178.966690 31.160233,178.960861 
	C48.308064,178.936432 64.656906,178.906403 81.473083,178.905609 
	C88.644424,178.639038 95.348434,178.343185 102.447639,178.052795 
	C103.897278,178.052597 104.951721,178.046967 106.450020,178.047592 
	C109.264984,178.050552 111.636101,178.047287 114.471382,178.049973 
	C119.292122,178.051819 123.648682,178.047729 128.005249,178.043640 
	C128.005249,178.043640 128.470184,178.051819 129.046600,178.279831 
	C136.720856,178.635269 143.818710,178.762695 150.916565,178.890137 
	C152.646286,178.933350 154.376007,178.976562 156.535797,179.044250 
	C156.932968,179.270721 156.900070,179.472717 156.365753,179.897858 
	C130.908905,180.127777 105.953461,180.134567 80.534851,180.065918 
	C63.037422,179.938110 46.003166,179.885757 28.968910,179.833405 
	C28.968910,179.833405 28.987719,179.410995 29.005026,179.200287 
z"/>
<path fill="#D4EAFF" opacity="1.000000" stroke="none" 
	d="
M28.642067,179.907104 
	C46.003166,179.885757 63.037422,179.938110 80.534088,180.239136 
	C80.996506,180.487823 80.996674,180.834290 80.996674,180.834290 
	C62.985363,180.876282 44.974049,180.918274 26.493645,180.913574 
	C26.788109,180.571518 27.551666,180.276169 28.642067,179.907104 
z"/>
<path fill="#94B5D4" opacity="1.000000" stroke="none" 
	d="
M28.369425,214.449982 
	C44.745735,214.107208 61.411728,214.060989 78.542023,214.255371 
	C79.006317,214.495987 79.009605,214.825790 78.544060,214.887604 
	C70.726883,215.028549 63.375252,215.107681 56.023621,215.186813 
	C54.303185,215.156448 52.582748,215.126083 50.438049,215.163956 
	C42.895561,215.070312 35.777332,214.908417 28.369425,214.449982 
z"/>
<path fill="#084681" opacity="1.000000" stroke="none" 
	d="
M3.310693,200.829453 
	C3.220341,200.936020 3.144654,200.468353 3.153268,200.231720 
	C3.418347,200.190735 3.498068,200.433334 3.310693,200.829453 
z"/>
<path fill="#175597" opacity="1.000000" stroke="none" 
	d="
M56.373108,215.398590 
	C63.375252,215.107681 70.726883,215.028549 79.008942,214.944092 
	C102.296593,215.026611 124.653831,215.114456 147.011063,215.202301 
	C147.011063,215.202301 147.006516,215.604111 147.000610,215.805023 
	C139.642044,216.005615 132.289398,216.005325 124.468071,216.010620 
	C117.312103,216.011795 110.624802,216.007401 103.469055,216.007050 
	C94.981102,216.008698 86.961594,216.006302 78.474159,216.008804 
	C70.911690,215.879257 63.817139,215.744797 56.373108,215.398590 
z"/>
<path fill="#014A96" opacity="1.000000" stroke="none" 
	d="
M9.000381,28.999937 
	C8.519949,25.656891 8.039515,22.313843 7.556542,18.953117 
	C9.517967,18.414322 11.610995,17.839375 13.704024,17.264429 
	C13.723243,16.801210 13.742462,16.337992 13.761681,15.874773 
	C12.117929,14.960068 10.474175,14.045363 8.500128,13.062191 
	C10.898952,10.781014 13.628069,8.568306 16.816872,6.366229 
	C17.628271,6.434091 17.858849,6.276927 17.968288,5.905371 
	C17.968288,5.905371 17.985899,5.977182 18.301460,5.984879 
	C19.081125,6.016810 19.545229,6.041045 19.991859,6.431858 
	C19.479383,8.529813 18.984379,10.261190 18.409582,12.271651 
	C19.829634,12.755878 21.141951,13.203369 23.547106,14.023509 
	C18.122627,17.225767 21.379295,19.744843 23.237791,22.396034 
	C26.252045,26.695946 28.064640,31.196894 28.209576,36.706554 
	C28.329262,41.256401 28.054775,46.533768 32.930050,49.696327 
	C33.582676,50.119682 33.675293,51.459393 33.954945,52.396336 
	C36.431686,60.694473 38.889851,68.998161 41.366211,77.296417 
	C41.458786,77.606644 41.608486,77.988045 41.854378,78.151299 
	C46.987282,81.558937 45.580830,87.334641 46.951252,92.104149 
	C47.489578,93.977684 48.071537,95.849388 48.796429,97.656624 
	C51.139114,103.497192 54.314434,109.132118 55.715649,115.182838 
	C56.913826,120.356812 56.775345,125.720650 61.010365,129.774780 
	C61.720287,130.454391 61.783558,131.899536 61.967995,133.020203 
	C62.419769,135.765244 62.767735,138.527374 63.135349,141.126236 
	C65.025459,141.402893 66.382172,141.601486 66.501114,141.618896 
	C67.129173,147.284378 65.963066,153.568451 68.574776,156.787048 
	C73.828758,163.261917 71.966377,172.797119 78.535843,177.998260 
	C73.714622,177.997482 69.358070,177.994766 64.939362,177.649628 
	C63.079174,174.839020 60.590122,172.618454 59.601902,169.860168 
	C55.156582,157.452560 51.167088,144.882202 46.937668,132.396133 
	C46.149471,130.069229 44.846222,127.915703 44.071747,125.585426 
	C41.849926,118.900246 39.906319,112.121117 37.616390,105.460388 
	C34.096413,95.221779 30.292793,85.080505 26.792400,74.835449 
	C25.586117,71.304855 25.325254,67.427261 23.942175,63.985596 
	C19.906492,53.943211 14.057210,44.467728 14.998693,32.573441 
	C14.894528,29.986275 14.790031,27.824446 14.685534,25.662619 
	C14.346431,25.638777 14.007328,25.614935 13.668225,25.591095 
	C13.112112,26.727396 12.555999,27.863699 11.624943,28.999985 
	C10.500127,28.999958 9.750255,28.999947 9.000381,28.999937 
z"/>
<path fill="#134E98" opacity="1.000000" stroke="none" 
	d="
M20.009331,6.065280 
	C19.545229,6.041045 19.081125,6.016810 18.269218,5.966792 
	C20.106697,5.020594 22.291981,4.100180 24.756836,3.062034 
	C47.043530,2.977632 69.050659,3.010962 91.522202,3.112858 
	C85.303757,3.456157 78.620903,3.730889 71.008957,4.004035 
	C66.387100,4.006536 62.694332,4.010623 58.547367,4.009681 
	C55.062378,4.008313 52.031586,4.011974 48.600807,4.010815 
	C47.134106,4.009331 46.067390,4.012667 44.563232,4.011016 
	C42.084427,4.008974 40.043056,4.011920 37.544937,4.010964 
	C33.393272,4.339994 29.698362,4.672925 25.621265,5.020770 
	C23.495829,5.378882 21.752581,5.722081 20.009331,6.065280 
z"/>
<path fill="#134E98" opacity="1.000000" stroke="none" 
	d="
M17.724575,5.953394 
	C17.858849,6.276927 17.628271,6.434091 17.148058,6.281348 
	C17.019560,6.185834 17.480862,6.001417 17.724575,5.953394 
z"/>
<path fill="#0451B5" opacity="1.000000" stroke="none" 
	d="
M157.119598,211.941788 
	C157.082794,209.319946 157.045959,206.698105 157.029526,203.333893 
	C157.045746,202.385422 157.041565,202.179306 157.255829,201.724152 
	C156.618042,198.904160 155.761826,196.333206 155.039322,193.571030 
	C155.451569,193.000931 155.730103,192.622055 156.245850,192.181793 
	C156.483078,192.120422 156.954010,191.984787 157.272949,191.944305 
	C158.399551,191.266953 159.207214,190.630081 160.397232,190.025055 
	C161.888519,191.989182 162.997421,193.921494 164.383621,196.336990 
	C164.698090,196.295059 165.802231,196.147858 166.906387,196.000656 
	C166.929153,201.032867 166.951920,206.065094 166.946747,211.568039 
	C166.461227,212.692154 165.900040,213.296326 165.562546,214.006744 
	C163.024200,219.349838 162.470413,219.517990 157.406723,215.839264 
	C157.204712,214.252136 157.162155,213.096970 157.119598,211.941788 
z"/>
<path fill="#96B7DD" opacity="1.000000" stroke="none" 
	d="
M147.439926,215.143036 
	C124.653831,215.114456 102.296593,215.026611 79.474487,214.882278 
	C79.009605,214.825790 79.006317,214.495987 79.005554,214.331085 
	C104.364754,214.105408 129.724731,214.044632 155.427917,214.229538 
	C154.867218,214.718613 153.963318,214.962036 153.059418,215.205460 
	C151.329208,215.164902 149.598999,215.124329 147.439926,215.143036 
z"/>
<path fill="#175597" opacity="1.000000" stroke="none" 
	d="
M153.336639,215.397888 
	C153.963318,214.962036 154.867218,214.718613 155.889587,214.140823 
	C156.294037,213.349396 156.580017,212.892365 156.992798,212.188568 
	C157.162155,213.096970 157.204712,214.252136 157.106110,215.693924 
	C155.847916,215.850464 154.730881,215.720398 153.336639,215.397888 
z"/>
<path fill="#0052C0" opacity="1.000000" stroke="none" 
	d="
M166.933548,105.533798 
	C163.793701,106.076096 163.114380,104.234978 162.949234,101.519600 
	C162.723846,97.813461 162.094559,94.131889 161.489304,89.232666 
	C159.757767,91.188408 158.901184,92.155899 157.933884,93.248451 
	C157.651474,92.851387 157.214203,92.511322 157.157913,92.116882 
	C156.029968,84.213280 155.042465,76.287788 153.767212,68.408699 
	C153.527710,66.928986 152.477936,64.852608 151.281281,64.385376 
	C146.811432,62.640137 147.132690,59.157990 146.912781,55.408386 
	C146.567810,49.525913 145.652786,43.676876 144.979187,37.813675 
	C144.458328,37.804615 143.937485,37.795555 143.416626,37.786495 
	C143.146545,41.288921 142.876480,44.791351 142.606400,48.293777 
	C142.000717,48.328579 141.395035,48.363384 140.789352,48.398186 
	C140.526230,45.736877 140.452866,43.038403 139.941147,40.425785 
	C139.516190,38.256035 138.575378,36.187317 137.470367,34.034832 
	C137.393463,26.618196 137.619720,19.234915 138.085754,11.866799 
	C138.207672,9.939211 139.074722,8.058750 139.304810,5.834112 
	C139.010056,5.511580 139.028473,5.025558 139.028473,5.025558 
	C147.088089,2.692001 154.840347,3.478032 161.991669,7.857387 
	C163.778992,8.951918 164.874268,11.176546 166.633759,12.953748 
	C166.960022,13.780221 166.940155,14.534719 166.795227,15.764647 
	C166.537582,16.531832 166.611328,16.773085 166.891418,16.963829 
	C166.916672,46.331207 166.941940,75.698586 166.933548,105.533798 
z"/>
<path fill="#0050B9" opacity="1.000000" stroke="none" 
	d="
M166.938965,195.532684 
	C165.802231,196.147858 164.698090,196.295059 164.383621,196.336990 
	C162.997421,193.921494 161.888519,191.989182 160.261108,189.737152 
	C159.497116,188.613037 159.251602,187.808655 159.006104,187.004272 
	C165.170135,185.728149 163.296326,180.692398 162.589111,177.406067 
	C161.843414,173.940811 159.541122,170.508148 157.110565,167.781906 
	C153.833038,164.105652 151.631058,160.381851 151.969452,155.325592 
	C152.212830,151.689240 152.516586,148.039337 148.608398,145.614792 
	C147.625793,145.005203 146.992447,142.897018 147.131134,141.575409 
	C147.778717,135.404831 146.014938,129.816010 143.604645,124.316391 
	C143.338547,123.709175 143.356491,122.874992 142.935120,122.453773 
	C137.142776,116.663605 134.994965,109.665146 135.855255,101.627220 
	C135.871979,101.470985 135.846741,101.223747 135.746811,101.153900 
	C129.809036,97.003960 131.979416,90.505043 130.656952,84.927048 
	C129.550232,80.259094 132.015579,77.829582 133.946274,74.347443 
	C134.926712,74.704544 135.782211,75.910637 136.772797,76.034218 
	C142.680527,76.771301 142.264709,80.916801 142.015152,85.125725 
	C141.738022,89.800110 141.692673,94.451988 145.095032,98.285835 
	C145.306549,98.524178 145.426422,98.864861 145.526642,99.177879 
	C147.896378,106.578873 150.187836,114.006012 152.659912,121.372559 
	C153.471329,123.790504 154.733704,126.058884 155.818314,128.382385 
	C156.165161,129.125427 156.755966,129.782013 156.976715,130.552246 
	C159.365768,138.887756 161.663101,147.249878 164.112244,155.567413 
	C164.379272,156.474304 165.440140,157.147430 166.512543,157.963943 
	C166.918716,170.354172 166.945129,182.709427 166.938965,195.532684 
z"/>
<path fill="#0052C0" opacity="1.000000" stroke="none" 
	d="
M166.936249,129.531555 
	C165.962326,129.280899 164.232025,128.590576 164.205551,127.840179 
	C163.995590,121.885918 164.049179,115.918579 164.211243,109.960403 
	C164.228775,109.316193 165.451141,108.704750 166.506439,108.038986 
	C166.921951,115.021263 166.945633,122.042671 166.936249,129.531555 
z"/>
<path fill="#0653B8" opacity="1.000000" stroke="none" 
	d="
M166.903870,16.733450 
	C166.611328,16.773085 166.537582,16.531832 166.773041,16.141745 
	C166.875900,16.043415 166.916336,16.503071 166.903870,16.733450 
z"/>
<path fill="#014890" opacity="1.000000" stroke="none" 
	d="
M3.999527,79.585457 
	C3.709385,79.995995 3.418628,79.997627 2.910733,80.000900 
	C2.609756,74.622688 2.525923,69.244507 2.823102,63.260357 
	C3.038821,61.113358 2.873529,59.572334 2.708238,58.031307 
	C2.623300,53.990688 2.538362,49.950069 2.800160,45.458031 
	C3.431416,45.003109 3.715947,45.001507 4.003195,45.339844 
	C4.181995,46.470951 4.183980,47.851139 4.562007,47.963245 
	C7.332377,48.784779 10.178087,49.352253 13.000110,50.249863 
	C13.000218,50.666569 13.000257,50.833248 13.000204,51.468250 
	C13.000089,55.267925 13.349489,58.644260 12.927661,61.921318 
	C12.035679,68.850845 14.439959,75.544159 18.125290,80.257576 
	C26.549412,91.031723 28.180403,103.527336 29.753407,116.061485 
	C30.891378,125.129204 33.105598,132.931458 40.323334,139.237061 
	C42.650089,141.269760 43.451744,145.683044 43.849751,149.134293 
	C44.395729,153.868637 43.324493,158.854660 47.949036,162.326035 
	C48.601170,162.815552 48.952808,164.159866 48.891205,165.071198 
	C48.520504,170.554749 48.702457,175.692749 54.546471,177.993866 
	C51.062904,177.995163 48.033436,177.994843 45.003967,177.994507 
	C44.751213,171.167389 44.238461,164.595261 37.962803,159.910110 
	C36.525970,158.837433 36.160683,155.734314 36.098316,153.543015 
	C35.978695,149.340134 36.043915,145.324844 32.823483,141.933289 
	C31.805685,140.861404 31.454802,138.876938 31.350452,137.274216 
	C31.121702,133.760803 29.392765,131.553177 27.065336,128.906097 
	C24.877693,126.417999 25.034616,121.918655 23.994545,118.352470 
	C23.373568,116.223289 22.209703,114.241203 21.691339,112.095985 
	C20.937391,108.975822 20.226574,105.784225 20.065939,102.594460 
	C19.736082,96.044518 17.409504,94.220047 10.836525,96.531166 
	C9.783284,91.136131 9.106108,85.939384 11.109838,80.666084 
	C11.565416,79.467117 12.467367,77.498016 12.020506,77.065987 
	C10.463921,75.561043 8.405567,74.575089 6.537964,73.391838 
	C5.692114,74.987389 4.827512,76.573540 4.019073,78.187828 
	C3.885992,78.453560 3.999406,78.842751 3.999527,79.585457 
z"/>
<path fill="#01478B" opacity="1.000000" stroke="none" 
	d="
M4.000488,45.001797 
	C3.715947,45.001507 3.431416,45.003109 2.934579,45.014393 
	C2.682488,39.317028 2.642714,33.611874 2.706959,27.532413 
	C2.810979,27.158108 3.048685,27.221531 3.357648,27.507225 
	C3.780534,29.528316 3.894456,31.263712 4.005951,33.459839 
	C4.002512,37.614311 4.001500,41.308056 4.000488,45.001797 
z"/>
<path fill="#01478B" opacity="1.000000" stroke="none" 
	d="
M2.576368,58.429016 
	C2.873529,59.572334 3.038821,61.113358 2.955306,62.809441 
	C2.619165,61.585239 2.531832,60.205978 2.576368,58.429016 
z"/>
<path fill="#0451B5" opacity="1.000000" stroke="none" 
	d="
M138.785690,4.938993 
	C139.028473,5.025558 139.010056,5.511580 139.005615,5.754701 
	C138.396439,5.885529 137.791687,5.773236 137.186935,5.660944 
	C137.638931,5.391438 138.090912,5.121933 138.785690,4.938993 
z"/>
<path fill="#004893" opacity="1.000000" stroke="none" 
	d="
M4.008378,32.999107 
	C3.894456,31.263712 3.780534,29.528316 3.479509,27.490446 
	C3.252618,26.961292 3.212829,26.734615 3.095556,26.171429 
	C3.018072,25.834923 2.973856,25.464119 2.933424,25.282276 
	C3.925171,24.647402 4.957350,24.194368 6.057507,23.711498 
	C6.824749,25.428549 7.574470,27.106386 8.662285,28.892078 
	C9.750255,28.999947 10.500127,28.999958 11.482521,29.320917 
	C10.234150,33.279709 12.871286,32.889805 14.998360,32.998779 
	C14.057210,44.467728 19.906492,53.943211 23.942175,63.985596 
	C25.325254,67.427261 25.586117,71.304855 26.792400,74.835449 
	C30.292793,85.080505 34.096413,95.221779 37.616390,105.460388 
	C39.906319,112.121117 41.849926,118.900246 44.071747,125.585426 
	C44.846222,127.915703 46.149471,130.069229 46.937668,132.396133 
	C51.167088,144.882202 55.156582,157.452560 59.601902,169.860168 
	C60.590122,172.618454 63.079174,174.839020 64.539169,177.651825 
	C63.134071,177.994339 62.067009,177.992172 60.909286,177.658447 
	C56.064449,174.751968 54.622013,170.870270 54.763191,165.455093 
	C54.844929,162.319901 52.608688,159.106613 51.339130,155.959320 
	C50.284100,153.343872 48.863186,150.849060 48.064911,148.163879 
	C47.083916,144.864105 47.723694,140.185104 45.655914,138.275574 
	C39.672691,132.750214 38.578053,126.261223 38.863178,118.825218 
	C38.915222,117.467926 37.531219,115.213715 36.325306,114.805397 
	C32.462067,113.497330 32.171219,110.770546 31.906683,107.382919 
	C31.575880,103.146698 31.621588,98.347153 29.615944,94.884995 
	C25.224064,87.303711 22.259403,79.708015 22.860107,70.815536 
	C22.949533,69.491730 21.382919,66.977745 20.336967,66.836868 
	C14.993892,66.117218 14.937730,62.659672 14.883142,58.528297 
	C14.849879,56.010986 13.666867,53.508869 13.000294,50.999928 
	C13.000257,50.833248 13.000218,50.666569 12.993952,49.856018 
	C9.705191,45.166725 8.271182,40.629982 8.580860,35.351631 
	C8.621480,34.659264 5.607553,33.787685 4.008378,32.999107 
z"/>
<path fill="#014DA9" opacity="1.000000" stroke="none" 
	d="
M59.001564,4.014711 
	C62.694332,4.010623 66.387100,4.006536 70.540550,4.008169 
	C70.864182,4.491460 70.867844,5.095675 70.569031,5.427658 
	C65.883751,10.633180 66.198349,11.688881 71.820290,13.225416 
	C73.716835,18.298672 75.487854,22.602148 76.904587,27.019257 
	C77.557945,29.056334 77.261513,31.388502 77.848579,33.458435 
	C78.949516,37.340168 79.447083,41.912045 81.867012,44.792892 
	C86.943428,50.836212 86.852921,58.253639 88.811302,65.082947 
	C90.132507,69.690285 89.586220,74.506569 93.274269,78.770462 
	C95.687492,81.560493 95.584358,86.448753 96.884995,90.303856 
	C97.950630,93.462440 99.536804,96.441872 100.692612,99.574371 
	C102.568222,104.657722 104.091759,109.877335 106.113251,114.898781 
	C108.263054,120.238945 110.816910,125.416573 113.199379,130.662872 
	C114.080063,132.602188 115.191208,134.467285 115.822617,136.483566 
	C117.627373,142.246597 119.233734,148.071655 120.936859,153.866806 
	C121.123344,154.501358 121.697311,155.124756 121.643028,155.711853 
	C120.900749,163.738876 125.145119,170.302628 127.946815,177.674438 
	C123.648682,178.047729 119.292122,178.051819 114.409317,177.670395 
	C112.918961,171.937119 112.124550,166.550507 110.912636,161.259521 
	C110.379059,158.930008 109.051857,156.768082 107.989212,154.576508 
	C104.373123,147.118729 100.710991,139.683289 97.085114,132.230240 
	C96.948479,131.949387 97.052025,131.561600 96.965767,131.244858 
	C94.535484,122.321434 92.134232,113.389732 89.625244,104.488419 
	C89.090286,102.590469 87.206863,100.574944 87.584915,99.009766 
	C88.763351,94.130981 85.998840,90.862228 84.165451,86.973663 
	C82.012077,82.406395 78.388649,76.637337 79.648514,72.774101 
	C81.857544,66.000351 77.952873,62.440792 75.384026,58.127724 
	C73.344307,54.703041 70.497391,52.055710 71.700073,47.396446 
	C72.090569,45.883633 70.596535,43.708912 69.602821,42.054131 
	C67.991440,39.370773 65.872841,36.983231 64.350494,34.257397 
	C62.443798,30.843384 61.165497,27.070309 59.177376,23.711843 
	C56.408157,19.033895 56.761078,16.467016 61.200294,13.723217 
	C55.483727,10.788898 55.487270,10.790904 58.777340,4.982333 
	C58.933811,4.706087 58.930477,4.339322 59.001564,4.014711 
z"/>
<path fill="#134E98" opacity="1.000000" stroke="none" 
	d="
M93.580399,5.176650 
	C93.927345,26.331909 94.012161,47.689602 94.055313,69.511658 
	C93.672806,68.074944 93.052551,66.176544 93.034309,64.272385 
	C92.850365,45.071625 92.760643,25.869936 92.680107,6.668359 
	C92.678307,6.239501 93.096161,5.808881 93.580399,5.176650 
z"/>
<path fill="#014DA9" opacity="1.000000" stroke="none" 
	d="
M150.598541,178.661469 
	C143.818710,178.762695 136.720856,178.635269 129.278854,178.269012 
	C132.650574,178.018280 136.366440,178.006378 140.543945,177.990891 
	C144.097214,178.135818 147.188873,178.284317 150.598541,178.661469 
z"/>
<path fill="#0451B5" opacity="1.000000" stroke="none" 
	d="
M122.560165,62.003342 
	C122.907906,62.088661 122.988449,62.535690 123.027100,62.759243 
	C122.891808,63.269859 122.674248,63.518810 122.204681,63.865051 
	C120.493744,63.513535 118.991203,63.026623 117.488655,62.539707 
	C117.628143,62.061733 117.767632,61.583763 117.907112,61.105793 
	C119.342224,61.376534 120.777328,61.647278 122.560165,62.003342 
z"/>
<path fill="#014FAF" opacity="1.000000" stroke="none" 
	d="
M105.936508,64.958817 
	C105.936508,64.958817 106.207840,64.646729 106.207840,64.646729 
	C106.207840,64.646729 106.221519,64.938538 106.106201,64.971069 
	C105.990883,65.003609 105.936508,64.958817 105.936508,64.958817 
z"/>
<path fill="#014FAF" opacity="1.000000" stroke="none" 
	d="
M106.014343,65.029884 
	C106.037804,65.056160 105.781845,65.354637 105.781845,65.354637 
	C105.781845,65.354637 105.767792,65.077888 105.852150,65.018356 
	C105.936508,64.958817 105.990883,65.003609 106.014343,65.029884 
z"/>
<path fill="#C8EBFF" opacity="1.000000" stroke="none" 
	d="
M81.460266,180.909119 
	C80.996674,180.834290 80.996506,180.487823 80.997261,180.314606 
	C105.953461,180.134567 130.908905,180.127777 156.307739,180.199326 
	C156.751144,180.277664 156.645905,180.571152 156.664764,180.725739 
	C131.763702,180.914886 106.843773,180.949417 81.460266,180.909119 
z"/>
<path fill="#034FAE" opacity="1.000000" stroke="none" 
	d="
M158.947723,186.712662 
	C159.251602,187.808655 159.497116,188.613037 159.878754,189.705322 
	C159.207214,190.630081 158.399551,191.266953 157.265900,191.696213 
	C156.939911,191.488617 156.829422,191.004700 156.829437,191.004700 
	C156.904327,189.285324 156.979218,187.565933 157.120209,185.420883 
	C157.753983,185.470490 158.321671,185.945770 158.947723,186.712662 
z"/>
<path fill="#07498B" opacity="1.000000" stroke="none" 
	d="
M32.767757,201.951172 
	C29.626877,200.609100 30.332146,198.167725 31.298843,195.247192 
	C31.714035,194.157684 31.822674,193.560226 31.931313,192.962784 
	C31.931311,192.962784 31.970778,192.971771 32.425694,193.057831 
	C40.928593,193.128372 48.976582,193.112854 57.016987,193.487183 
	C56.432411,197.471756 55.635002,201.175293 60.487408,201.908447 
	C50.938606,201.954315 41.853180,201.952744 32.767757,201.951172 
z"/>
<path fill="#A4C9F3" opacity="1.000000" stroke="none" 
	d="
M156.375916,191.005646 
	C156.829422,191.004700 156.939911,191.488617 156.946960,191.736694 
	C156.954010,191.984787 156.483078,192.120422 155.785431,192.084320 
	C142.380783,192.115723 129.673767,192.183228 116.611588,192.205933 
	C115.540260,192.190704 114.824081,192.220276 113.648056,192.158203 
	C109.783516,192.131622 106.378807,192.196686 102.564041,192.219879 
	C100.781654,192.206024 99.409325,192.234039 97.582909,192.168884 
	C93.742134,192.141602 90.355446,192.207504 86.545151,192.232544 
	C84.421974,192.222427 82.722412,192.253174 80.612282,192.185425 
	C78.798759,192.000290 77.395805,191.913681 75.993874,191.663300 
	C75.994904,191.499527 76.000641,191.172012 76.000641,191.172012 
	C102.641235,191.116867 129.281830,191.061722 156.375916,191.005646 
z"/>
<path fill="#5A88B8" opacity="1.000000" stroke="none" 
	d="
M32.996059,202.345001 
	C41.853180,201.952744 50.938606,201.954315 60.958893,201.956436 
	C68.617363,201.923615 75.340973,201.890274 82.467667,201.905060 
	C84.221458,201.918167 85.572166,201.883133 87.393661,201.893555 
	C93.594131,202.007812 99.323814,202.076599 105.041367,202.317337 
	C105.029236,202.489288 105.008530,202.833435 105.008530,202.833435 
	C81.080475,202.801910 57.152416,202.770386 32.996059,202.345001 
z"/>
<path fill="#598CC5" opacity="1.000000" stroke="none" 
	d="
M105.472672,202.898529 
	C105.008530,202.833435 105.029236,202.489288 105.015106,202.242523 
	C105.000969,201.995758 104.943504,201.848541 105.413994,201.904907 
	C119.559410,201.919846 133.234344,201.878448 147.367767,201.881622 
	C150.896637,201.941864 153.967010,201.957520 157.037399,201.973190 
	C157.041565,202.179306 157.045746,202.385422 157.016571,202.899139 
	C139.967758,203.125717 122.952286,203.044662 105.472672,202.898529 
z"/>
<path fill="#3366A1" opacity="1.000000" stroke="none" 
	d="
M75.992844,191.827072 
	C77.395805,191.913681 78.798759,192.000290 80.252182,192.386139 
	C72.543282,192.822693 64.783928,192.960007 57.024567,193.097336 
	C48.976582,193.112854 40.928593,193.128372 32.418625,193.038849 
	C32.341606,192.596558 32.726574,192.259293 33.887482,192.016617 
	C48.439896,192.016510 62.216370,191.921783 75.992844,191.827072 
z"/>
<path fill="#B3D5F4" opacity="1.000000" stroke="none" 
	d="
M75.993874,191.663300 
	C62.216370,191.921783 48.439896,192.016510 34.171028,192.079788 
	C35.190357,191.697922 36.700325,191.052612 38.214069,191.043640 
	C50.499744,190.970764 62.786125,191.017120 75.536469,191.099579 
	C76.000641,191.172012 75.994904,191.499527 75.993874,191.663300 
z"/>
<path fill="#3366A1" opacity="1.000000" stroke="none" 
	d="
M31.612286,193.078217 
	C31.822674,193.560226 31.714035,194.157684 31.349529,194.955078 
	C31.160194,194.501236 31.226725,193.847443 31.612286,193.078217 
z"/>
<path fill="#054787" opacity="1.000000" stroke="none" 
	d="
M60.999947,177.990021 
	C62.067009,177.992172 63.134071,177.994339 64.601334,177.994278 
	C69.358070,177.994766 73.714622,177.997482 78.868568,178.000916 
	C80.109550,178.006165 80.553139,178.010712 80.998436,178.230530 
	C81.000153,178.445816 81.005753,178.876358 81.005753,178.876358 
	C64.656906,178.906403 48.308064,178.936432 31.494993,178.945618 
	C35.379524,178.615784 39.728279,178.306808 44.540504,177.996170 
	C48.033436,177.994843 51.062904,177.995163 54.974922,177.995697 
	C57.571629,177.993927 59.285789,177.991974 60.999947,177.990021 
z"/>
<path fill="#004CA5" opacity="1.000000" stroke="none" 
	d="
M58.547367,4.009681 
	C58.930477,4.339322 58.933811,4.706087 58.777340,4.982333 
	C55.487270,10.790904 55.483727,10.788898 61.200294,13.723217 
	C56.761078,16.467016 56.408157,19.033895 59.177376,23.711843 
	C61.165497,27.070309 62.443798,30.843384 64.350494,34.257397 
	C65.872841,36.983231 67.991440,39.370773 69.602821,42.054131 
	C70.596535,43.708912 72.090569,45.883633 71.700073,47.396446 
	C70.497391,52.055710 73.344307,54.703041 75.384026,58.127724 
	C77.952873,62.440792 81.857544,66.000351 79.648514,72.774101 
	C78.388649,76.637337 82.012077,82.406395 84.165451,86.973663 
	C85.998840,90.862228 88.763351,94.130981 87.584915,99.009766 
	C87.206863,100.574944 89.090286,102.590469 89.625244,104.488419 
	C92.134232,113.389732 94.535484,122.321434 96.965767,131.244858 
	C97.052025,131.561600 96.948479,131.949387 97.085114,132.230240 
	C100.710991,139.683289 104.373123,147.118729 107.989212,154.576508 
	C109.051857,156.768082 110.379059,158.930008 110.912636,161.259521 
	C112.124550,166.550507 112.918961,171.937119 113.945145,177.664444 
	C111.636101,178.047287 109.264984,178.050552 106.386520,177.685135 
	C104.585693,172.634613 103.256027,167.962311 102.022713,163.264679 
	C101.690804,162.000473 102.059929,160.394043 101.411674,159.396881 
	C97.366158,153.174072 94.655594,146.539886 92.297417,139.428177 
	C90.023994,132.572083 88.050003,126.075905 87.778946,118.777168 
	C87.595276,113.831169 86.140587,108.500946 83.716171,104.212067 
	C81.918381,101.031708 79.316856,98.832329 80.801804,94.684196 
	C81.149338,93.713364 80.120758,91.593994 79.109306,90.897125 
	C71.521957,85.669624 70.506973,77.818001 69.914169,69.590813 
	C69.708305,66.733780 68.681999,63.888668 67.725624,61.144333 
	C66.395477,57.327454 62.978287,53.192410 63.730350,49.954418 
	C64.717438,45.704491 63.169865,43.996929 60.933647,41.460133 
	C59.288548,39.593899 57.085537,36.980225 57.311520,34.941280 
	C57.935097,29.315022 55.635426,25.324923 52.093269,21.602634 
	C48.266563,17.581316 48.250412,17.596685 52.398594,13.553320 
	C49.567871,10.999293 45.426006,8.823095 49.000793,4.015635 
	C52.031586,4.011974 55.062378,4.008313 58.547367,4.009681 
z"/>
<path fill="#004CA2" opacity="1.000000" stroke="none" 
	d="
M48.600807,4.010815 
	C45.426006,8.823095 49.567871,10.999293 52.398594,13.553320 
	C48.250412,17.596685 48.266563,17.581316 52.093269,21.602634 
	C55.635426,25.324923 57.935097,29.315022 57.311520,34.941280 
	C57.085537,36.980225 59.288548,39.593899 60.933647,41.460133 
	C63.169865,43.996929 64.717438,45.704491 63.730350,49.954418 
	C62.978287,53.192410 66.395477,57.327454 67.725624,61.144333 
	C68.681999,63.888668 69.708305,66.733780 69.914169,69.590813 
	C70.506973,77.818001 71.521957,85.669624 79.109306,90.897125 
	C80.120758,91.593994 81.149338,93.713364 80.801804,94.684196 
	C79.316856,98.832329 81.918381,101.031708 83.716171,104.212067 
	C86.140587,108.500946 87.595276,113.831169 87.778946,118.777168 
	C88.050003,126.075905 90.023994,132.572083 92.297417,139.428177 
	C94.655594,146.539886 97.366158,153.174072 101.411674,159.396881 
	C102.059929,160.394043 101.690804,162.000473 102.022713,163.264679 
	C103.256027,167.962311 104.585693,172.634613 105.942673,177.678894 
	C104.951721,178.046967 103.897278,178.052597 102.105087,178.040527 
	C100.911453,178.015823 100.455574,178.008835 99.999252,177.588654 
	C99.695656,175.383453 99.593941,173.528534 99.057411,171.809341 
	C94.877274,158.415039 90.613594,145.046814 86.375504,131.670624 
	C82.403122,119.133087 79.549583,106.084091 74.122681,94.211380 
	C69.319756,83.703758 65.461868,73.127327 62.815613,61.985756 
	C62.588776,61.030701 61.977566,60.173622 61.626259,59.240406 
	C58.506603,50.953316 55.503288,42.620716 52.258087,34.383320 
	C50.584694,30.135695 48.390549,26.095350 46.638538,21.875477 
	C45.982655,20.295727 45.846310,18.481848 45.601395,16.756502 
	C45.443230,15.642262 45.990486,13.970881 45.410969,13.448520 
	C41.960907,10.338730 43.479565,7.219374 45.000675,4.016004 
	C46.067390,4.012667 47.134106,4.009331 48.600807,4.010815 
z"/>
<path fill="#01478B" opacity="1.000000" stroke="none" 
	d="
M99.999695,178.001831 
	C100.455574,178.008835 100.911453,178.015823 101.709885,178.035095 
	C95.348434,178.343185 88.644424,178.639038 81.473083,178.905609 
	C81.005753,178.876358 81.000153,178.445816 81.436333,178.226135 
	C83.915215,178.003067 85.957909,177.999710 88.444710,177.998306 
	C91.259209,177.999573 93.629601,177.998871 96.399963,178.000671 
	C97.866524,178.002716 98.933105,178.002274 99.999695,178.001831 
z"/>
<path fill="#004A9A" opacity="1.000000" stroke="none" 
	d="
M88.000610,177.996338 
	C85.957909,177.999710 83.915215,178.003067 81.434616,178.010849 
	C80.553139,178.010712 80.109550,178.006165 79.333252,177.998978 
	C71.966377,172.797119 73.828758,163.261917 68.574776,156.787048 
	C65.963066,153.568451 67.129173,147.284378 66.501114,141.618896 
	C66.382172,141.601486 65.025459,141.402893 63.135349,141.126236 
	C62.767735,138.527374 62.419769,135.765244 61.967995,133.020203 
	C61.783558,131.899536 61.720287,130.454391 61.010365,129.774780 
	C56.775345,125.720650 56.913826,120.356812 55.715649,115.182838 
	C54.314434,109.132118 51.139114,103.497192 48.796429,97.656624 
	C48.071537,95.849388 47.489578,93.977684 46.951252,92.104149 
	C45.580830,87.334641 46.987282,81.558937 41.854378,78.151299 
	C41.608486,77.988045 41.458786,77.606644 41.366211,77.296417 
	C38.889851,68.998161 36.431686,60.694473 33.954945,52.396336 
	C33.675293,51.459393 33.582676,50.119682 32.930050,49.696327 
	C28.054775,46.533768 28.329262,41.256401 28.209576,36.706554 
	C28.064640,31.196894 26.252045,26.695946 23.237791,22.396034 
	C21.379295,19.744843 18.122627,17.225767 23.547106,14.023509 
	C21.141951,13.203369 19.829634,12.755878 18.409582,12.271651 
	C18.984379,10.261190 19.479383,8.529813 19.991859,6.431858 
	C21.752581,5.722081 23.495829,5.378882 25.606197,5.382782 
	C25.250051,7.279023 24.526787,8.828165 23.616768,10.777313 
	C25.932396,10.881635 27.975363,10.669285 29.824003,11.171803 
	C30.922365,11.470373 32.604858,13.598170 32.515774,13.710881 
	C29.521837,17.498802 33.299114,19.800879 34.424335,22.582926 
	C35.351242,24.874653 36.916660,26.916138 37.774082,29.226273 
	C39.480587,33.824059 40.371147,38.793549 42.551323,43.130665 
	C45.894531,49.781452 49.050385,56.324955 49.277096,63.958572 
	C49.324150,65.543007 50.315475,67.095253 50.848717,68.670090 
	C53.517712,76.552513 56.108383,84.462379 58.869373,92.312386 
	C60.554745,97.104210 62.592049,101.771622 64.306732,106.553909 
	C68.471413,118.169304 72.497124,129.834610 76.681458,141.442810 
	C77.575699,143.923615 79.249374,146.148438 79.973061,148.661362 
	C82.778343,158.402420 85.345062,168.212158 88.000610,177.996338 
z"/>
<path fill="#014890" opacity="1.000000" stroke="none" 
	d="
M14.998693,32.573441 
	C12.871286,32.889805 10.234150,33.279709 11.857464,29.320934 
	C12.555999,27.863699 13.112112,26.727396 13.668225,25.591095 
	C14.007328,25.614935 14.346431,25.638777 14.685534,25.662619 
	C14.790031,27.824446 14.894528,29.986275 14.998693,32.573441 
z"/>
<path fill="#004A9E" opacity="1.000000" stroke="none" 
	d="
M88.444710,177.998306 
	C85.345062,168.212158 82.778343,158.402420 79.973061,148.661362 
	C79.249374,146.148438 77.575699,143.923615 76.681458,141.442810 
	C72.497124,129.834610 68.471413,118.169304 64.306732,106.553909 
	C62.592049,101.771622 60.554745,97.104210 58.869373,92.312386 
	C56.108383,84.462379 53.517712,76.552513 50.848717,68.670090 
	C50.315475,67.095253 49.324150,65.543007 49.277096,63.958572 
	C49.050385,56.324955 45.894531,49.781452 42.551323,43.130665 
	C40.371147,38.793549 39.480587,33.824059 37.774082,29.226273 
	C36.916660,26.916138 35.351242,24.874653 34.424335,22.582926 
	C33.299114,19.800879 29.521837,17.498802 32.515774,13.710881 
	C32.604858,13.598170 30.922365,11.470373 29.824003,11.171803 
	C27.975363,10.669285 25.932396,10.881635 23.616768,10.777313 
	C24.526787,8.828165 25.250051,7.279023 25.988384,5.367868 
	C29.698362,4.672925 33.393272,4.339994 37.486397,4.350846 
	C37.003078,6.225006 36.121548,7.755383 35.158825,9.426715 
	C37.814255,10.919041 40.203835,12.261962 43.055519,13.864582 
	C40.864475,14.996319 39.595509,15.651776 37.966599,16.493153 
	C38.987839,18.222261 39.959080,19.553020 40.608452,21.025703 
	C42.470043,25.247511 44.218983,29.519508 45.976925,33.786312 
	C47.021881,36.322575 47.466553,39.332684 49.137203,41.330063 
	C51.480202,44.131287 53.753311,46.187088 51.271152,50.229244 
	C50.646912,51.245804 52.009655,53.955971 53.087292,55.428089 
	C54.537552,57.409241 56.732574,58.830112 58.330597,60.725315 
	C59.010933,61.532177 59.608608,63.318737 59.184185,63.996853 
	C56.747845,67.889496 58.566536,70.861282 60.620350,74.075554 
	C61.700954,75.766716 63.046730,78.120468 62.641083,79.774986 
	C61.368469,84.965630 62.204227,88.826553 66.937889,91.827255 
	C67.793343,92.369537 68.236862,95.257759 67.597244,96.145226 
	C65.658485,98.835236 66.449913,100.858505 68.358528,102.774948 
	C70.890511,105.317299 73.597290,107.685570 76.539650,110.417076 
	C71.054230,113.738739 73.757988,116.932190 75.443939,120.111221 
	C78.988884,126.795601 82.581978,133.455566 86.019135,140.194992 
	C86.668381,141.467987 86.685799,143.063080 86.995560,144.509384 
	C87.547318,147.085571 87.898819,149.725067 88.688995,152.225967 
	C91.185890,160.128647 89.844482,169.198486 95.902435,176.040527 
	C96.240593,176.422470 95.981247,177.333435 96.000000,177.998169 
	C93.629601,177.998871 91.259209,177.999573 88.444710,177.998306 
z"/>
<path fill="#004AA0" opacity="1.000000" stroke="none" 
	d="
M96.399971,178.000671 
	C95.981247,177.333435 96.240593,176.422470 95.902435,176.040527 
	C89.844482,169.198486 91.185890,160.128647 88.688995,152.225967 
	C87.898819,149.725067 87.547318,147.085571 86.995560,144.509384 
	C86.685799,143.063080 86.668381,141.467987 86.019135,140.194992 
	C82.581978,133.455566 78.988884,126.795601 75.443939,120.111221 
	C73.757988,116.932190 71.054230,113.738739 76.539650,110.417076 
	C73.597290,107.685570 70.890511,105.317299 68.358528,102.774948 
	C66.449913,100.858505 65.658485,98.835236 67.597244,96.145226 
	C68.236862,95.257759 67.793343,92.369537 66.937889,91.827255 
	C62.204227,88.826553 61.368469,84.965630 62.641083,79.774986 
	C63.046730,78.120468 61.700954,75.766716 60.620350,74.075554 
	C58.566536,70.861282 56.747845,67.889496 59.184185,63.996853 
	C59.608608,63.318737 59.010933,61.532177 58.330597,60.725315 
	C56.732574,58.830112 54.537552,57.409241 53.087292,55.428089 
	C52.009655,53.955971 50.646912,51.245804 51.271152,50.229244 
	C53.753311,46.187088 51.480202,44.131287 49.137203,41.330063 
	C47.466553,39.332684 47.021881,36.322575 45.976925,33.786312 
	C44.218983,29.519508 42.470043,25.247511 40.608452,21.025703 
	C39.959080,19.553020 38.987839,18.222261 37.966599,16.493153 
	C39.595509,15.651776 40.864475,14.996319 43.055519,13.864582 
	C40.203835,12.261962 37.814255,10.919041 35.158825,9.426715 
	C36.121548,7.755383 37.003078,6.225006 37.943146,4.354748 
	C40.043056,4.011920 42.084427,4.008974 44.563232,4.011016 
	C43.479565,7.219374 41.960907,10.338730 45.410969,13.448520 
	C45.990486,13.970881 45.443230,15.642262 45.601395,16.756502 
	C45.846310,18.481848 45.982655,20.295727 46.638538,21.875477 
	C48.390549,26.095350 50.584694,30.135695 52.258087,34.383320 
	C55.503288,42.620716 58.506603,50.953316 61.626259,59.240406 
	C61.977566,60.173622 62.588776,61.030701 62.815613,61.985756 
	C65.461868,73.127327 69.319756,83.703758 74.122681,94.211380 
	C79.549583,106.084091 82.403122,119.133087 86.375504,131.670624 
	C90.613594,145.046814 94.877274,158.415039 99.057411,171.809341 
	C99.593941,173.528534 99.695656,175.383453 99.999252,177.588654 
	C98.933105,178.002274 97.866524,178.002716 96.399971,178.000671 
z"/>
<path fill="#034FAE" opacity="1.000000" stroke="none" 
	d="
M157.255829,201.724152 
	C153.967010,201.957520 150.896637,201.941864 147.034149,201.661407 
	C141.162399,201.262787 136.082718,201.128952 131.006104,200.623535 
	C132.015625,198.155807 133.022095,196.059692 134.491806,193.967346 
	C141.605225,193.901489 148.255417,193.831863 154.905594,193.762238 
	C155.761826,196.333206 156.618042,198.904160 157.255829,201.724152 
z"/>
<path fill="#3366A1" opacity="1.000000" stroke="none" 
	d="
M155.039322,193.571030 
	C148.255417,193.831863 141.605225,193.901489 134.480850,193.980408 
	C134.006653,193.989700 134.019272,193.984268 133.896210,193.787186 
	C133.574860,193.341827 133.326553,193.163040 132.560638,193.036987 
	C127.050934,192.763733 122.008842,192.507217 116.966743,192.250717 
	C129.673767,192.183228 142.380783,192.115723 155.548218,192.145691 
	C155.730103,192.622055 155.451569,193.000931 155.039322,193.571030 
z"/>
<path fill="#004892" opacity="1.000000" stroke="none" 
	d="
M60.909286,177.658447 
	C59.285789,177.991974 57.571629,177.993927 55.429024,177.994049 
	C48.702457,175.692749 48.520504,170.554749 48.891205,165.071198 
	C48.952808,164.159866 48.601170,162.815552 47.949036,162.326035 
	C43.324493,158.854660 44.395729,153.868637 43.849751,149.134293 
	C43.451744,145.683044 42.650089,141.269760 40.323334,139.237061 
	C33.105598,132.931458 30.891378,125.129204 29.753407,116.061485 
	C28.180403,103.527336 26.549412,91.031723 18.125290,80.257576 
	C14.439959,75.544159 12.035679,68.850845 12.927661,61.921318 
	C13.349489,58.644260 13.000089,55.267925 13.000204,51.468250 
	C13.666867,53.508869 14.849879,56.010986 14.883142,58.528297 
	C14.937730,62.659672 14.993892,66.117218 20.336967,66.836868 
	C21.382919,66.977745 22.949533,69.491730 22.860107,70.815536 
	C22.259403,79.708015 25.224064,87.303711 29.615944,94.884995 
	C31.621588,98.347153 31.575880,103.146698 31.906683,107.382919 
	C32.171219,110.770546 32.462067,113.497330 36.325306,114.805397 
	C37.531219,115.213715 38.915222,117.467926 38.863178,118.825218 
	C38.578053,126.261223 39.672691,132.750214 45.655914,138.275574 
	C47.723694,140.185104 47.083916,144.864105 48.064911,148.163879 
	C48.863186,150.849060 50.284100,153.343872 51.339130,155.959320 
	C52.608688,159.106613 54.844929,162.319901 54.763191,165.455093 
	C54.622013,170.870270 56.064449,174.751968 60.909286,177.658447 
z"/>
<path fill="#004892" opacity="1.000000" stroke="none" 
	d="
M4.005950,33.459839 
	C5.607553,33.787685 8.621480,34.659264 8.580860,35.351631 
	C8.271182,40.629982 9.705191,45.166725 12.993881,49.605999 
	C10.178087,49.352253 7.332377,48.784779 4.562007,47.963245 
	C4.183980,47.851139 4.181995,46.470951 4.003195,45.339844 
	C4.001500,41.308056 4.002512,37.614311 4.005950,33.459839 
z"/>
<path fill="#024995" opacity="1.000000" stroke="none" 
	d="
M57.016987,193.487183 
	C64.783928,192.960007 72.543282,192.822693 80.662743,192.484650 
	C82.722412,192.253174 84.421974,192.222427 86.760307,192.409210 
	C87.932808,192.775208 88.466553,192.923630 89.000542,193.485779 
	C89.203514,199.770477 90.249878,200.857117 96.015953,200.984344 
	C99.009094,201.050400 102.004829,200.998978 104.988281,201.212769 
	C104.977180,201.424942 104.943504,201.848541 104.943504,201.848541 
	C104.943504,201.848541 105.000969,201.995758 105.027237,202.070572 
	C99.323814,202.076599 93.594131,202.007812 87.134064,201.694183 
	C84.957306,201.585190 83.510948,201.721054 82.064583,201.856934 
	C75.340973,201.890274 68.617363,201.923615 61.422272,201.908966 
	C55.635002,201.175293 56.432411,197.471756 57.016987,193.487183 
z"/>
<path fill="#024A9F" opacity="1.000000" stroke="none" 
	d="
M104.999390,201.000610 
	C102.004829,200.998978 99.009094,201.050400 96.015953,200.984344 
	C90.249878,200.857117 89.203514,199.770477 89.434067,193.461273 
	C92.590561,192.769409 95.313774,192.515732 98.036995,192.262054 
	C99.409325,192.234039 100.781654,192.206024 102.915558,192.420807 
	C107.125648,192.805038 110.574150,192.946503 113.924561,193.407715 
	C111.560249,195.626862 107.850830,196.767593 109.590103,200.994644 
	C107.781502,200.998352 106.390442,200.999481 104.999390,201.000610 
z"/>
<path fill="#014CA7" opacity="1.000000" stroke="none" 
	d="
M110.007645,200.992065 
	C107.850830,196.767593 111.560249,195.626862 113.951263,193.198364 
	C114.076057,192.669250 114.107903,192.249847 114.107903,192.249847 
	C114.824081,192.220276 115.540260,192.190704 116.611588,192.205933 
	C122.008842,192.507217 127.050934,192.763733 132.690109,193.226379 
	C133.492065,193.668365 133.736099,193.852295 134.019272,193.984268 
	C134.019272,193.984268 134.006653,193.989700 134.017609,193.976624 
	C133.022095,196.059692 132.015625,198.155807 130.537201,200.625916 
	C123.379402,200.997269 116.693520,200.994659 110.007645,200.992065 
z"/>
<path fill="#3366A1" opacity="1.000000" stroke="none" 
	d="
M113.648056,192.158203 
	C114.107903,192.249847 114.076057,192.669250 114.049362,192.878601 
	C110.574150,192.946503 107.125648,192.805038 103.325623,192.462662 
	C106.378807,192.196686 109.783516,192.131622 113.648056,192.158203 
z"/>
<path fill="#3366A1" opacity="1.000000" stroke="none" 
	d="
M97.582909,192.168869 
	C95.313774,192.515732 92.590561,192.769409 89.433815,193.047577 
	C88.466553,192.923630 87.932808,192.775208 87.183914,192.450089 
	C90.355446,192.207504 93.742134,192.141602 97.582909,192.168869 
z"/>
<path fill="#07498B" opacity="1.000000" stroke="none" 
	d="
M82.467667,201.905060 
	C83.510948,201.721054 84.957306,201.585190 86.663269,201.648712 
	C85.572166,201.883133 84.221458,201.918167 82.467667,201.905060 
z"/>
<path fill="#084E9A" opacity="1.000000" stroke="none" 
	d="
M109.590103,200.994629 
	C116.693520,200.994659 123.379402,200.997269 130.534164,200.997498 
	C136.082718,201.128952 141.162399,201.262787 146.575668,201.616837 
	C133.234344,201.878448 119.559410,201.919846 105.413994,201.904907 
	C104.943504,201.848541 104.977180,201.424942 104.988281,201.212769 
	C106.390442,200.999481 107.781502,200.998352 109.590103,200.994629 
z"/>
<path fill="#024A9F" opacity="1.000000" stroke="none" 
	d="
M133.896210,193.787186 
	C133.736099,193.852295 133.492065,193.668365 133.157715,193.243118 
	C133.326553,193.163040 133.574860,193.341827 133.896210,193.787186 
z"/>
</svg>